<?xml version="1.0" standalone="no"?><!DOCTYPE svg PUBLIC "-//W3C//DTD SVG 1.1//EN" "http://www.w3.org/Graphics/SVG/1.1/DTD/svg11.dtd"><svg t="1635313363882" class="icon" viewBox="0 0 1024 1024" version="1.1" xmlns="http://www.w3.org/2000/svg" p-id="8492" xmlns:xlink="http://www.w3.org/1999/xlink" width="200" height="200"><defs><style type="text/css"></style></defs><path d="M512 512m-388 0a388 388 0 1 0 776 0 388 388 0 1 0-776 0Z" fill="#f4ea2a" p-id="8493" data-spm-anchor-id="a313x.7781069.0.i6" class="selected"></path><path d="M405.619 461.477l-81.178-21.859c-14.87-4.004-23.761-19.447-19.757-34.317 4.004-14.87 19.447-23.761 34.317-19.757l81.178 21.859c14.87 4.004 23.761 19.447 19.757 34.317-4.004 14.871-19.446 23.762-34.317 19.757zM618.381 461.477l81.178-21.859c14.87-4.004 23.761-19.447 19.757-34.317-4.004-14.87-19.447-23.761-34.317-19.757l-81.178 21.859c-14.87 4.004-23.761 19.447-19.757 34.317 4.004 14.871 19.446 23.762 34.317 19.757z" fill="#231815" p-id="8494" data-spm-anchor-id="a313x.7781069.0.i5" class=""></path><path d="M400.162 637.011a24.894 24.894 0 0 1-15.746-5.595c-10.718-8.704-12.35-24.449-3.646-35.167 32.651-40.204 81.055-63.263 132.798-63.263 49.543 0 96.608 21.465 129.126 58.892 9.056 10.422 7.948 26.213-2.475 35.269-10.423 9.057-26.213 7.948-35.269-2.476-23.017-26.491-56.324-41.685-91.382-41.685-36.615 0-70.872 16.323-93.986 44.784-4.939 6.084-12.149 9.241-19.42 9.241z" fill="#FFFFFF" p-id="8495"></path></svg>